<svg width="32" height="32" viewBox="0 0 32 32" fill="none" xmlns="http://www.w3.org/2000/svg">
<g clip-path="url(#clip0_7_1232)">
<path opacity="0.5" d="M0 16C0 8.45752 -1.90735e-07 4.68629 2.34315 2.34315C4.68629 -1.90735e-07 8.45752 0 16 0C23.5424 0 27.3138 -1.90735e-07 29.6568 2.34315C32 4.68629 32 8.45752 32 16C32 23.5424 32 27.3138 29.6568 29.6568C27.3138 32 23.5424 32 16 32C8.45752 32 4.68629 32 2.34315 29.6568C-1.90735e-07 27.3138 0 23.5424 0 16Z" fill="#5EA9FA"/>
<path d="M9.60002 9.20005C8.93729 9.20005 8.40002 8.66278 8.40002 8.00005C8.40002 7.33731 8.93729 6.80005 9.60002 6.80005H22.4C23.0627 6.80005 23.6 7.33731 23.6 8.00005C23.6 8.66278 23.0627 9.20005 22.4 9.20005H9.60002Z" fill="#007BFF"/>
<path d="M17.2 24C17.2 24.6627 16.6627 25.2 16 25.2C15.3373 25.2 14.8 24.6627 14.8 24V15.6971L12.0485 18.4485C11.5799 18.9171 10.8201 18.9171 10.3515 18.4485C9.88284 17.9798 9.88284 17.2201 10.3515 16.7515L15.1515 11.9514C15.3765 11.7264 15.6818 11.6 16 11.6C16.3182 11.6 16.6235 11.7264 16.8485 11.9514L21.6485 16.7515C22.1171 17.2201 22.1171 17.9798 21.6485 18.4485C21.1798 18.9171 20.4202 18.9171 19.9515 18.4485L17.2 15.6971V24Z" fill="#007BFF"/>
</g>
<defs>
<clipPath id="clip0_7_1232">
<rect width="32" height="32" fill="white"/>
</clipPath>
</defs>
</svg>
