<svg width="40" height="40" viewBox="0 0 40 40" fill="none" xmlns="http://www.w3.org/2000/svg">
<g clip-path="url(#clip0_18_2422)">
<path d="M31.6667 35H8.33341V8.33329H11.6667V11.6666H28.3334V8.33329H31.6667V11.9533L33.3334 10.2866V6.66663H28.3334V4.99996H23.3334C23.3334 4.1159 22.9822 3.26806 22.3571 2.64294C21.732 2.01782 20.8841 1.66663 20.0001 1.66663C19.116 1.66663 18.2682 2.01782 17.6431 2.64294C17.0179 3.26806 16.6667 4.1159 16.6667 4.99996H11.6667V6.66663H6.66675V36.6666H33.3334V19.7133L31.6667 21.38V35ZM13.3334 6.66663H18.3334V4.35829C18.3334 4.08673 18.4412 3.82627 18.633 3.6341C18.8249 3.44192 19.0852 3.33373 19.3567 3.33329H20.6417C20.9136 3.33329 21.1743 3.44128 21.3665 3.63351C21.5588 3.82573 21.6667 4.08645 21.6667 4.35829V6.66663H26.6667V9.99996H13.3334V6.66663ZM37.7434 9.40996L38.9217 10.5883L24.1667 25.345L17.7434 18.9216L18.9217 17.7433L24.1667 22.9883L37.7434 9.40996Z" fill="#5EA9FA"/>
</g>
<defs>
<clipPath id="clip0_18_2422">
<rect width="40" height="40" fill="white"/>
</clipPath>
</defs>
</svg>
