<svg width="60" height="60" viewBox="0 0 60 60" fill="none" xmlns="http://www.w3.org/2000/svg">
<path opacity="0.5" d="M5 30C5 18.2149 5 12.3223 8.66117 8.66117C12.3223 5 18.2149 5 30 5C41.785 5 47.6777 5 51.3387 8.66117C55 12.3223 55 18.2149 55 30C55 41.785 55 47.6777 51.3387 51.3387C47.6777 55 41.785 55 30 55C18.2149 55 12.3223 55 8.66117 51.3387C5 47.6777 5 41.785 5 30Z" fill="#1C274C"/>
<path d="M20 19.375C18.9645 19.375 18.125 18.5355 18.125 17.5C18.125 16.4645 18.9645 15.625 20 15.625H40C41.0355 15.625 41.875 16.4645 41.875 17.5C41.875 18.5355 41.0355 19.375 40 19.375H20Z" fill="#1C274C"/>
<path d="M31.875 42.5C31.875 43.5355 31.0355 44.375 30 44.375C28.9645 44.375 28.125 43.5355 28.125 42.5V29.5268L23.8258 33.8258C23.0936 34.558 21.9064 34.558 21.1742 33.8258C20.4419 33.0935 20.4419 31.9065 21.1742 31.1742L28.6742 23.6742C29.0257 23.3226 29.5027 23.125 30 23.125C30.4972 23.125 30.9742 23.3226 31.3257 23.6742L38.8257 31.1742C39.558 31.9065 39.558 33.0935 38.8257 33.8258C38.0935 34.558 36.9065 34.558 36.1742 33.8258L31.875 29.5268V42.5Z" fill="#1C274C"/>
</svg>
