<svg width="24" height="24" viewBox="0 0 24 24" fill="none" xmlns="http://www.w3.org/2000/svg">
<g clip-path="url(#clip0_16_2142)">
<path fill-rule="evenodd" clip-rule="evenodd" d="M21.4797 1.15574C20.2245 -0.0995176 18.1893 -0.0995218 16.934 1.15574L1.76518 16.3246C1.31647 16.7733 1.01061 17.3448 0.886163 17.967L0.25716 21.1121C-0.0427204 22.6114 1.27925 23.9335 2.77865 23.6336L5.92366 23.0045C6.54591 22.8802 7.11741 22.5743 7.56612 22.1255L22.7349 6.95668C23.9902 5.70142 23.9902 3.66625 22.7349 2.41099L21.4797 1.15574ZM18.4492 2.67096C18.8677 2.25255 19.546 2.25255 19.9645 2.67096L21.2197 3.92623C21.6382 4.34464 21.6382 5.02303 21.2197 5.44145L18.3573 8.30387L15.5869 5.53338L18.4492 2.67096ZM14.0716 7.04861L3.28041 17.8398C3.13084 17.9894 3.02889 18.1799 2.98741 18.3873L2.3584 21.5323L5.50341 20.9033C5.71083 20.8618 5.90133 20.7599 6.0509 20.6103L16.8421 9.81909L14.0716 7.04861Z" fill="#5EA9FA"/>
</g>
<defs>
<clipPath id="clip0_16_2142">
<rect width="24" height="24" fill="white"/>
</clipPath>
</defs>
</svg>
