<svg width="40" height="40" viewBox="0 0 40 40" fill="none" xmlns="http://www.w3.org/2000/svg">
<g clip-path="url(#clip0_18_2368)">
<path d="M39.6801 13.4787C39.68 13.3516 39.6296 13.2297 39.5399 13.1398L36.5121 10.1119C36.4221 10.022 36.3 9.97141 36.1727 9.97141C36.0454 9.97141 35.9234 10.022 35.8334 10.1119L27.8913 18.0502V2.71995C27.8913 2.08343 27.6384 1.47298 27.1883 1.02289C26.7382 0.572803 26.1278 0.319946 25.4913 0.319946H2.72007C2.08355 0.319946 1.4731 0.572803 1.02301 1.02289C0.572925 1.47298 0.320068 2.08343 0.320068 2.71995V37.2799C0.320068 37.9165 0.572925 38.5269 1.02301 38.977C1.4731 39.4271 2.08355 39.6799 2.72007 39.6799H25.4913C26.1278 39.6799 26.7382 39.4271 27.1883 38.977C27.6384 38.5269 27.8913 37.9165 27.8913 37.2799V25.4662L39.5399 13.8185C39.5845 13.7738 39.6198 13.7208 39.6438 13.6625C39.6679 13.6042 39.6802 13.5417 39.6801 13.4787Z" fill="#231F20"/>
<path d="M21.9276 24.0147C21.8869 24.0571 21.8544 24.1065 21.8316 24.1606L19.7196 28.9712C19.6416 29.1073 19.6097 29.2649 19.6285 29.4206C19.6474 29.5763 19.716 29.7217 19.8242 29.8352C19.8888 29.8992 19.9653 29.9498 20.0495 29.9841C20.1337 30.0184 20.2239 30.0356 20.3148 30.0349C20.4345 30.0348 20.5524 30.0059 20.6585 29.9504L24.198 28.3952V36.0138H3.75V3.98816H7.82136C8.09334 4.43181 8.47428 4.79852 8.92796 5.05342C9.38164 5.30832 9.89298 5.44294 10.4134 5.44448H17.7919C18.3123 5.44294 18.8236 5.30832 19.2773 5.05342C19.731 4.79852 20.1119 4.43181 20.3839 3.98816H24.1855V21.7482L21.9276 24.0147Z" fill="white"/>
<path d="M26.9312 37.28C26.9312 37.6619 26.7795 38.0282 26.5095 38.2983C26.2394 38.5683 25.8731 38.72 25.4912 38.72H2.72003C2.33812 38.72 1.97185 38.5683 1.7018 38.2983C1.43174 38.0282 1.28003 37.6619 1.28003 37.28V2.72003C1.28003 2.33812 1.43174 1.97185 1.7018 1.7018C1.97185 1.43174 2.33812 1.28003 2.72003 1.28003H7.35587V2.38403C7.35641 2.60067 7.38022 2.81663 7.42691 3.02819H3.27011C3.14281 3.02819 3.02072 3.07876 2.9307 3.16878C2.84068 3.2588 2.79011 3.38089 2.79011 3.50819V36.4919C2.79011 36.6192 2.84068 36.7413 2.9307 36.8313C3.02072 36.9213 3.14281 36.9719 3.27011 36.9719H24.6714C24.7987 36.9719 24.9208 36.9213 25.0108 36.8313C25.1008 36.7413 25.1514 36.6192 25.1514 36.4919V27.968L25.4893 27.8192C25.5438 27.7965 25.5935 27.764 25.6362 27.7232L26.9312 26.4272V37.28Z" fill="#5EA9FA"/>
<path d="M13.784 11.1805H22.592C22.7193 11.1805 22.8413 11.1299 22.9314 11.0399C23.0214 10.9499 23.072 10.8278 23.072 10.7005C23.072 10.5732 23.0214 10.4511 22.9314 10.361C22.8413 10.271 22.7193 10.2205 22.592 10.2205H13.784C13.6567 10.2205 13.5346 10.271 13.4445 10.361C13.3545 10.4511 13.304 10.5732 13.304 10.7005C13.304 10.8278 13.3545 10.9499 13.4445 11.0399C13.5346 11.1299 13.6567 11.1805 13.784 11.1805Z" fill="#231F20"/>
<path d="M9.51959 9.56575L8.41655 10.6688L7.99127 10.2435C7.947 10.1977 7.89403 10.1611 7.83547 10.1359C7.77691 10.1108 7.71392 10.0975 7.65019 10.097C7.58645 10.0964 7.52325 10.1086 7.46426 10.1327C7.40527 10.1568 7.35167 10.1925 7.3066 10.2376C7.26154 10.2826 7.2259 10.3362 7.20176 10.3952C7.17763 10.4542 7.16548 10.5174 7.16603 10.5811C7.16659 10.6449 7.17983 10.7079 7.20499 10.7664C7.23014 10.825 7.26671 10.878 7.31255 10.9222L8.08055 11.6902C8.17057 11.7802 8.29264 11.8308 8.41991 11.8308C8.54719 11.8308 8.66926 11.7802 8.75927 11.6902L10.1993 10.2502C10.2867 10.1597 10.3351 10.0385 10.334 9.9126C10.3329 9.78674 10.2824 9.66635 10.1934 9.57736C10.1044 9.48836 9.98404 9.43788 9.85819 9.43679C9.73233 9.43569 9.61108 9.48407 9.52055 9.57151L9.51959 9.56575Z" fill="#231F20"/>
<path d="M8.57599 7.26563C7.89683 7.26544 7.23286 7.46665 6.66805 7.84381C6.10324 8.22098 5.66295 8.75716 5.40287 9.38455C5.14279 10.0119 5.0746 10.7024 5.20691 11.3685C5.33922 12.0347 5.6661 12.6466 6.14621 13.127C6.62632 13.6074 7.23809 13.9346 7.90417 14.0673C8.57025 14.2 9.26071 14.1322 9.88825 13.8724C10.5158 13.6127 11.0522 13.1727 11.4297 12.6081C11.8072 12.0435 12.0088 11.3797 12.009 10.7005C12.0079 9.79016 11.646 8.91737 11.0025 8.27348C10.3589 7.62959 9.48634 7.26715 8.57599 7.26563ZM8.57599 13.1735C8.08662 13.1737 7.60818 13.0287 7.2012 12.7569C6.79422 12.4852 6.47698 12.0988 6.28961 11.6467C6.10225 11.1946 6.05318 10.6971 6.1486 10.2171C6.24403 9.73716 6.47967 9.29626 6.82571 8.95022C7.17175 8.60418 7.61265 8.36854 8.09263 8.27311C8.57261 8.17769 9.07012 8.22676 9.52221 8.41412C9.9743 8.60149 10.3607 8.91873 10.6324 9.32571C10.9042 9.73269 11.0491 10.2111 11.049 10.7005C11.0479 11.3561 10.7871 11.9845 10.3235 12.448C9.85997 12.9116 9.23155 13.1725 8.57599 13.1735Z" fill="#231F20"/>
<path d="M22.592 19.52H13.784C13.6567 19.52 13.5346 19.5706 13.4445 19.6606C13.3545 19.7506 13.304 19.8727 13.304 20C13.304 20.1273 13.3545 20.2494 13.4445 20.3394C13.5346 20.4294 13.6567 20.48 13.784 20.48H22.592C22.7193 20.48 22.8413 20.4294 22.9314 20.3394C23.0214 20.2494 23.072 20.1273 23.072 20C23.072 19.8727 23.0214 19.7506 22.9314 19.6606C22.8413 19.5706 22.7193 19.52 22.592 19.52Z" fill="#231F20"/>
<path d="M9.51959 18.8653L8.41655 19.9693L7.99127 19.5431C7.947 19.4972 7.89403 19.4607 7.83547 19.4355C7.77691 19.4103 7.71392 19.3971 7.65019 19.3965C7.58645 19.396 7.52325 19.4081 7.46426 19.4323C7.40527 19.4564 7.35167 19.4921 7.3066 19.5371C7.26154 19.5822 7.2259 19.6358 7.20176 19.6948C7.17763 19.7538 7.16548 19.817 7.16603 19.8807C7.16659 19.9444 7.17983 20.0074 7.20499 20.066C7.23014 20.1245 7.26671 20.1775 7.31255 20.2218L8.08055 20.9898C8.17057 21.0798 8.29264 21.1303 8.41991 21.1303C8.54719 21.1303 8.66926 21.0798 8.75927 20.9898L10.1993 19.5498C10.2867 19.4593 10.3351 19.338 10.334 19.2122C10.3329 19.0863 10.2824 18.9659 10.1934 18.8769C10.1044 18.7879 9.98404 18.7374 9.85819 18.7363C9.73233 18.7353 9.61108 18.7836 9.52055 18.8711L9.51959 18.8653Z" fill="#231F20"/>
<path d="M8.57601 16.567C7.897 16.5668 7.23317 16.768 6.6685 17.1451C6.10383 17.5222 5.66367 18.0583 5.40369 18.6856C5.14371 19.3128 5.07558 20.0031 5.20794 20.6691C5.34029 21.3351 5.66717 21.9469 6.14724 22.4271C6.62731 22.9073 7.23901 23.2344 7.90496 23.3669C8.57092 23.4994 9.26122 23.4315 9.88857 23.1717C10.5159 22.9119 11.0521 22.4719 11.4294 21.9073C11.8066 21.3428 12.008 20.679 12.008 20C12.0067 19.0901 11.6448 18.2178 11.0015 17.5742C10.3581 16.9307 9.48593 16.5685 8.57601 16.567ZM8.57601 22.4729C8.08687 22.4731 7.60865 22.3283 7.20185 22.0566C6.79505 21.785 6.47793 21.3989 6.29061 20.947C6.10329 20.4951 6.05418 19.9979 6.14949 19.5181C6.2448 19.0383 6.48025 18.5976 6.82607 18.2517C7.17188 17.9057 7.61251 17.6701 8.09225 17.5746C8.57198 17.4791 9.06926 17.528 9.52119 17.7152C9.97312 17.9023 10.3594 18.2193 10.6312 18.626C10.903 19.0327 11.048 19.5108 11.048 20C11.0473 20.6554 10.7866 21.2839 10.3232 21.7474C9.8598 22.211 9.23148 22.4719 8.57601 22.4729Z" fill="#231F20"/>
<path d="M17.5539 28.8204H13.784C13.6567 28.8204 13.5346 28.871 13.4445 28.961C13.3545 29.051 13.304 29.1731 13.304 29.3004C13.304 29.4277 13.3545 29.5498 13.4445 29.6398C13.5346 29.7299 13.6567 29.7804 13.784 29.7804H17.5539C17.6812 29.7804 17.8033 29.7299 17.8933 29.6398C17.9833 29.5498 18.0339 29.4277 18.0339 29.3004C18.0339 29.1731 17.9833 29.051 17.8933 28.961C17.8033 28.871 17.6812 28.8204 17.5539 28.8204Z" fill="#231F20"/>
<path d="M9.51959 28.1667L8.41655 29.2688L7.99127 28.8445C7.947 28.7986 7.89403 28.762 7.83547 28.7369C7.77691 28.7117 7.71392 28.6985 7.65019 28.6979C7.58645 28.6974 7.52325 28.7095 7.46426 28.7337C7.40527 28.7578 7.35167 28.7934 7.3066 28.8385C7.26154 28.8836 7.2259 28.9372 7.20176 28.9962C7.17763 29.0552 7.16548 29.1184 7.16603 29.1821C7.16659 29.2458 7.17983 29.3088 7.20499 29.3674C7.23014 29.4259 7.26671 29.4789 7.31255 29.5232L8.08055 30.2912C8.17057 30.3812 8.29264 30.4317 8.41991 30.4317C8.54719 30.4317 8.66926 30.3812 8.75927 30.2912L10.1993 28.8512C10.2867 28.7607 10.3351 28.6394 10.334 28.5135C10.3329 28.3877 10.2824 28.2673 10.1934 28.1783C10.1044 28.0893 9.98404 28.0388 9.85819 28.0377C9.73233 28.0366 9.61108 28.085 9.52055 28.1725L9.51959 28.1667Z" fill="#231F20"/>
<path d="M8.57599 25.8666C7.89679 25.8664 7.23278 26.0676 6.66795 26.4448C6.10312 26.822 5.66283 27.3583 5.40278 27.9857C5.14273 28.6132 5.07459 29.3037 5.20698 29.9698C5.33937 30.636 5.66634 31.248 6.14655 31.7283C6.62675 32.2086 7.23862 32.5358 7.90476 32.6684C8.5709 32.8009 9.26139 32.733 9.88892 32.4731C10.5164 32.2132 11.0528 31.7731 11.4302 31.2084C11.8075 30.6437 12.009 29.9797 12.009 29.3005C12.0077 28.3903 11.6456 27.5178 11.0021 26.8741C10.3586 26.2304 9.48617 25.8681 8.57599 25.8666ZM8.57599 31.7744C8.08666 31.7746 7.60826 31.6297 7.2013 31.358C6.79434 31.0862 6.4771 30.6999 6.28971 30.2479C6.10231 29.7959 6.05319 29.2984 6.14853 28.8184C6.24388 28.3385 6.47942 27.8976 6.82537 27.5515C7.17132 27.2054 7.61212 26.9697 8.09204 26.8742C8.57196 26.7786 9.06943 26.8276 9.52154 27.0148C9.97365 27.202 10.3601 27.5191 10.632 27.926C10.9038 28.3328 11.049 28.8112 11.049 29.3005C11.0479 29.9561 10.7871 30.5847 10.3236 31.0484C9.86006 31.5121 9.23164 31.7731 8.57599 31.7744Z" fill="#231F20"/>
<path d="M26.9313 2.72003V19.0093L25.1515 20.7892V3.50915C25.1515 3.38185 25.1009 3.25976 25.0109 3.16974C24.9209 3.07972 24.7988 3.02915 24.6715 3.02915H20.7854C20.8316 2.81752 20.8554 2.60161 20.8564 2.38499V1.28003H25.4913C25.8732 1.28003 26.2395 1.43174 26.5096 1.7018C26.7796 1.97185 26.9313 2.33812 26.9313 2.72003Z" fill="#5EA9FA"/>
<path d="M22.9308 27.8989L21.751 26.7181L22.4998 25.015L24.6339 27.1501L22.9308 27.8989Z" fill="#F7D2D0"/>
<path d="M21.3374 27.6608L21.9882 28.3136L20.8257 28.8243L21.3374 27.6608Z" fill="#5EA9FA"/>
<path d="M19.8964 2.38403C19.8956 2.94154 19.6736 3.47595 19.279 3.86981C18.8844 4.26367 18.3496 4.48476 17.7921 4.48451H10.4154C9.85868 4.48375 9.32495 4.26217 8.93136 3.86839C8.53776 3.47461 8.31643 2.94079 8.31592 2.38403V1.28003H19.8964V2.38403Z" fill="#C6B9C4"/>
<path d="M36.1705 11.1277L23.0706 24.2277L25.4213 26.5784L38.5212 13.4785L36.1705 11.1277Z" fill="#FF8E5A"/>
</g>
<defs>
<clipPath id="clip0_18_2368">
<rect width="40" height="40" fill="white"/>
</clipPath>
</defs>
</svg>
