<svg width="40" height="40" viewBox="0 0 40 40" fill="none" xmlns="http://www.w3.org/2000/svg">
<g clip-path="url(#clip0_18_2360)">
<path d="M40 16.9458C39.9976 14.6557 38.1421 12.7991 35.852 12.7978H29.923C29.6472 12.7978 26.5185 12.7978 26.2341 12.7978C25.6909 12.8028 25.1928 12.8833 24.8302 12.8784C24.685 12.8784 24.5702 12.8662 24.503 12.8515L24.4531 12.837L24.4409 12.8003C24.4299 12.7528 24.419 12.6734 24.419 12.5586C24.419 12.4878 24.43 12.3877 24.4385 12.29L26.8042 6.44041C27.0312 5.87885 27.1387 5.29541 27.1387 4.72408C27.1411 2.91252 26.0571 1.19627 24.2749 0.473614C23.7159 0.247755 23.1311 0.139161 22.5574 0.139161C20.7447 0.137911 19.0308 1.22315 18.3081 3.00416L18.3045 3.01025L14.292 13.1128H14.2945C14.0259 13.7428 13.8098 14.3335 13.5987 14.8438C13.2801 15.6274 12.9688 16.1914 12.6013 16.5186C12.417 16.6846 12.2168 16.8092 11.9385 16.9068C11.6627 17.0021 11.3001 17.0667 10.8142 17.0667C10.5188 17.0655 10.238 17.0997 9.96336 17.151H3.47656C1.55516 17.151 0 18.7074 0 20.6275V36.3856C0 38.3057 1.55516 39.8609 3.47656 39.8609H8.28734C9.35305 39.8609 10.2185 38.9966 10.2185 37.9297V36.3294C10.5566 36.5271 10.9131 36.7066 11.2964 36.8506C12.6367 37.3585 14.2285 37.5709 16.1451 37.5709H31.0865C33.3766 37.5709 35.2345 35.7178 35.2345 33.4266C35.2345 32.8882 35.1246 32.3756 34.9354 31.9068C36.5882 31.3599 37.7833 29.8072 37.7833 27.9713C37.7845 27.2217 37.5733 26.5223 37.2254 25.9205C37.7271 25.5103 38.0677 24.9708 38.2618 24.4068C38.4742 23.8013 38.5474 23.1642 38.5474 22.516C38.5474 22.1143 38.462 21.7237 38.3155 21.3428C38.208 21.0718 38.0677 20.8045 37.8955 20.5518C39.1504 19.8389 39.9987 18.4924 40 16.9458ZM35.8545 19.0467H35.1636C34.8926 19.0467 34.6313 19.1553 34.4409 19.3457C34.2505 19.5361 34.1406 19.7999 34.1406 20.0684C34.1406 20.3369 34.2505 20.6006 34.4409 20.791C34.6314 20.9814 34.8926 21.0913 35.1636 21.0913C35.3602 21.0913 35.5212 21.1353 35.6787 21.2171C35.9107 21.3355 36.1316 21.5588 36.2842 21.8201C36.438 22.0764 36.5088 22.3706 36.504 22.5159C36.5064 23.1641 36.3916 23.6938 36.2134 24.0063C36.1231 24.165 36.0266 24.2761 35.9083 24.3653C35.7887 24.4531 35.6397 24.5264 35.4127 24.5753C35.0269 24.6534 34.7241 24.9451 34.629 25.3272C34.5326 25.7105 34.6632 26.1109 34.9684 26.3624C35.4445 26.7603 35.7398 27.3243 35.7398 27.9713C35.7374 29.131 34.7987 30.0709 33.6366 30.0733H33.1495C32.7247 30.0733 32.3438 30.3346 32.1949 30.7325C32.0435 31.1305 32.1534 31.5773 32.4733 31.8605C32.9177 32.2572 33.1898 32.8029 33.1898 33.4267C33.1886 34.5863 32.2487 35.525 31.0866 35.5275H16.1452C14.5777 35.5288 13.3302 35.3663 12.3707 35.0612C11.648 34.8317 11.0902 34.5278 10.6385 34.1481C10.4871 34.0187 10.3492 33.877 10.2186 33.7294V19.1797C10.3834 19.1382 10.5738 19.1113 10.8143 19.1113C11.6993 19.1113 12.4671 18.9514 13.1153 18.6231C13.5988 18.3802 14.004 18.0445 14.3263 17.6721C14.8097 17.1094 15.1246 16.477 15.398 15.8374C15.6715 15.1953 15.9059 14.5386 16.1817 13.8917L16.1939 13.8672L20.2039 3.76713C20.603 2.7808 21.554 2.18385 22.5574 2.18268C22.8736 2.18268 23.1959 2.24252 23.5084 2.36947C24.4971 2.76744 25.0941 3.71838 25.0953 4.72424C25.0953 5.04041 25.0367 5.36143 24.9098 5.67518L22.4879 11.6652C22.4549 11.7445 22.4341 11.8251 22.422 11.9093C22.3914 12.1363 22.3755 12.3512 22.3755 12.5588C22.3755 12.9396 22.4293 13.2997 22.5696 13.6354C22.6722 13.8869 22.8272 14.12 23.0176 14.3044C23.3032 14.5852 23.6487 14.7414 23.9575 14.822C24.27 14.905 24.5605 14.9221 24.8303 14.9233C25.4102 14.9196 25.9326 14.8378 26.2341 14.8428C26.5186 14.8428 29.6473 14.8428 29.9231 14.8428H35.8521C37.0118 14.8415 37.9566 15.7839 37.9566 16.946C37.9541 18.1055 37.0141 19.0454 35.8545 19.0467Z" fill="#007BFF"/>
</g>
<defs>
<clipPath id="clip0_18_2360">
<rect width="40" height="40" fill="white"/>
</clipPath>
</defs>
</svg>
